<?xml version="1.0" encoding="UTF-8" standalone="no"?>
<!-- Created with Inkscape (http://www.inkscape.org/) -->

<svg
   xmlns:dc="http://purl.org/dc/elements/1.1/"
   xmlns:cc="http://creativecommons.org/ns#"
   xmlns:rdf="http://www.w3.org/1999/02/22-rdf-syntax-ns#"
   xmlns:svg="http://www.w3.org/2000/svg"
   xmlns="http://www.w3.org/2000/svg"
   xmlns:sodipodi="http://sodipodi.sourceforge.net/DTD/sodipodi-0.dtd"
   xmlns:inkscape="http://www.inkscape.org/namespaces/inkscape"
   version="1.0"
   width="56.32246mm"
   height="63.128036mm"
   id="svg3751"
   inkscape:version="0.91 r13725"
   sodipodi:docname="frescolino_logo.svg">
  <metadata
     id="metadata8">
    <rdf:RDF>
      <cc:Work
         rdf:about="">
        <dc:format>image/svg+xml</dc:format>
        <dc:type
           rdf:resource="http://purl.org/dc/dcmitype/StillImage" />
        <dc:title />
      </cc:Work>
    </rdf:RDF>
  </metadata>
  <sodipodi:namedview
     pagecolor="#ffffff"
     bordercolor="#666666"
     borderopacity="1"
     objecttolerance="10"
     gridtolerance="10"
     guidetolerance="10"
     inkscape:pageopacity="0"
     inkscape:pageshadow="2"
     inkscape:window-width="1920"
     inkscape:window-height="1176"
     id="namedview6"
     showgrid="false"
     inkscape:zoom="2.9781429"
     inkscape:cx="26.06878"
     inkscape:cy="81.492629"
     inkscape:window-x="1200"
     inkscape:window-y="474"
     inkscape:window-maximized="1"
     inkscape:current-layer="layer4"
     fit-margin-top="0"
     fit-margin-left="0"
     fit-margin-right="0"
     fit-margin-bottom="0"
     units="mm" />
  <defs
     id="defs3753" />
  <g
     transform="translate(53.494663,-86.23595)"
     id="layer1" />
  <g
     transform="translate(-9.5072935,2.4995201)"
     style="display:none"
     inkscape:label="crystal border"
     id="g4190"
     inkscape:groupmode="layer"
     sodipodi:insensitive="true">
    <path
       d="m 106.9288,216.18067 c -1.17958,-0.9803 -1.1865,-1.0333 -1.42241,-10.8927 l -0.23707,-9.9075 -9.008621,5.209 c -9.18928,5.3135 -10.89555,5.9249 -12.70481,4.5528 -1.28786,-0.9767 -1.60641,-3.8698 -0.55413,-5.0326 0.47063,-0.52 5.7267,-3.7467 11.68016,-7.1704 l 10.824471,-6.225 0,-12.5462 c 0,-10.84 -0.0947,-12.5099 -0.69654,-12.279 -0.38309,0.147 -5.703871,3.1569 -11.823941,6.6887 -7.5077,4.3325 -11.58851,6.4213 -12.54491,6.4213 -2.82469,0 -4.4617,-4.0827 -2.39446,-5.9717 0.54365,-0.4968 6.89116,-4.3213 14.1056,-8.4988 l 13.117181,-7.5955 0.13344,-5.5467 0.13347,-5.5467 -3.2191,1.7253 c -3.041581,1.6301 -3.297101,1.6878 -4.633451,1.0473 -0.7779,-0.3728 -1.69463,-1.2626 -2.03721,-1.9774 -1.04842,-2.1875 0.02112,-3.5499 5.238991,-6.6738 l 4.62093,-2.7665 0,-8.7582 0,-8.7583 -2.01509,1.2156 c -1.1083,0.6686 -4.522091,2.6411 -7.586201,4.3834 l -5.57113,3.1679 0,5.6219 c 0,5.3367 -0.05903,5.6809 -1.16379,6.7857 -1.48324,1.4832 -3.30125,1.4832 -4.78448,0 -1.01538,-1.0154 -1.16379,-1.5898 -1.16379,-4.5043 0,-1.8373 -0.13471,-3.3405 -0.29934,-3.3405 -0.53339,0 -8.93535,4.9011 -9.2947,5.4219 -0.19159,0.2776 -0.35161,7.6903 -0.3556,16.4725 l -0.0073,15.9678 -1.2493,0.9827 c -1.55724,1.2249 -3.05601,1.2505 -4.50636,0.0769 l -1.11934,-0.9057 -0.23707,-14.2167 -0.23707,-14.2168 -10.76609,6.2323 -10.7661,6.2323 -0.13907,13.1991 -0.13908,13.1991 -1.33032,1.1436 c -1.60293,1.3781 -3.15536,1.4574 -4.66241,0.2382 -1.1057,-0.8945 -1.12223,-1.0416 -1.35641,-12.0735 l -0.23707,-11.1679 -8.18721,4.7243 c -4.50297,2.5984 -8.72657,4.7243 -9.38578,4.7243 -1.64802,0 -3.52614,-1.9864 -3.52614,-3.7294 0,-1.8857 1.25536,-2.872 10.0463,-7.8928 3.99285,-2.2805 7.32429,-4.2012 7.4032,-4.2683 0.07891,-0.0671 -3.86829,-2.4166 -8.77155,-5.2212 -4.90326,-2.8045 -9.28841,-5.5195 -9.74476,-6.0333 -2.14077,-2.4101 0.05561,-6.4602 3.16603,-5.8381 1.06369,0.2127 16.11194,8.5544 22.13469,12.2699 0.59361,0.3662 3.02667,-0.8337 10.90517,-5.3784 5.57759,-3.2174 10.50408,-6.0901 10.94775,-6.3839 0.6792,-0.4496 -1.0042,-1.5761 -10.65409,-7.1294 -6.30341,-3.6275 -11.84044,-6.9752 -12.30451,-7.4392 -1.30771,-1.3078 -1.10132,-3.8913 0.40553,-5.0766 0.68711,-0.5405 1.70834,-0.9827 2.26941,-0.9827 0.56107,0 6.9852,3.4404 14.27585,7.6455 7.29065,4.205 13.52091,7.7472 13.84502,7.8716 0.58502,0.2245 9.61007,-4.5924 9.61031,-5.1293 6e-5,-0.1541 -1.0622,-0.8584 -2.36061,-1.5651 -3.79413,-2.065 -4.86872,-4.6552 -2.83631,-6.8368 1.56862,-1.6837 3.49226,-1.3311 8.50226,1.5582 l 4.49057,2.5897 1.55183,-0.9156 c 0.85352,-0.5036 4.2213,-2.4586 7.48395,-4.3446 3.26265,-1.8859 5.770941,-3.5746 5.573971,-3.7528 -0.19696,-0.1781 -3.576871,-2.1699 -7.510891,-4.4263 l -7.15277,-4.1024 -4.4636,2.6169 c -2.76128,1.6189 -5.01721,2.6189 -5.91516,2.6221 -3.36628,0.0119 -4.80317,-4.0588 -2.20089,-6.235104 0.72931,-0.6099 2.11617,-1.5308 3.0819,-2.0465 0.96573,-0.5157 1.75588,-1.0575 1.75588,-1.2042 0,-0.5894 -8.79195,-5.2506 -9.53652,-5.0559 -0.44013,0.1151 -6.75948,3.6485 -14.04299,7.8522 -7.43954,4.293604 -13.76115,7.642904 -14.4257,7.642904 -2.67092,0 -4.41562,-4.5252 -2.41505,-6.2638 0.45636,-0.3966 5.95043,-3.659004 12.20905,-7.249604 6.25862,-3.5907 11.4346,-6.5728 11.50219,-6.6269 0.14612,-0.1169 -20.27884,-11.9509 -21.30909,-12.3462 -0.41602,-0.1597 -5.33314,2.3916 -11.85308,6.1499 -6.12816,3.5325 -11.6124,6.4228 -12.18719,6.4228 -2.66037,0 -4.50706,-4.5516 -2.54291,-6.2676 0.45635,-0.3987 4.83356,-3.0244 9.72712,-5.8349 4.89356,-2.8104 8.84076,-5.1633 8.77155,-5.2284 -0.0692,-0.0652 -3.53962,-2.0744 -7.71204,-4.4649 -8.18643,-4.6902 -9.71982,-5.9629 -9.71982,-8.0669 0,-1.6414 1.91092,-3.3342 3.73851,-3.3118 0.68724,0.008 4.83277,2.1002 9.30028,4.6928 l 8.06034,4.6777 0.23707,-11.1365 c 0.23414,-10.9986 0.25092,-11.1476 1.35641,-12.0419 1.57214,-1.2719 3.46607,-1.1478 4.84327,0.3172 l 1.14946,1.2228 0.15012,13.1199 0.15011,13.1199 10.04386,5.7791 c 5.52411,3.1785 10.41722,5.9217 10.87358,6.096 0.7785,0.2973 0.82974,-0.5367 0.82974,-13.5054 l 0,-13.8223 1.1638,-1.1638 c 1.49335,-1.4933 3.55071,-1.5211 4.91735,-0.0664 1.01616,1.0816 1.03092,1.3251 1.03092,16.9955 0,14.5556 0.07006,15.9578 0.82974,16.6051 0.89846,0.7655 8.44299,5.1296 8.868,5.1296 0.14252,0 0.25916,-1.5847 0.25916,-3.5216 0,-3.2397 0.1,-3.6003 1.24928,-4.5043 1.74829,-1.3752 3.67128,-1.2702 4.8801,0.2666 0.86244,1.0964 0.98268,1.9047 0.98268,6.6056 0,5.3088 0.0116,5.3644 1.30388,6.2576 1.76814,1.2221 13.192241,7.697804 13.580031,7.697804 0.17046,0 0.25175,-3.879904 0.18067,-8.622104 l -0.12923,-8.6221 -4.40088,-2.5729 c -5.279871,-3.0867 -6.256601,-4.4291 -5.058951,-6.953 1.13881,-2.3999 2.84548,-2.6063 6.372531,-0.7706 1.54627,0.8047 2.92681,1.4631 3.06788,1.4631 0.14106,0 0.25202,-2.4003 0.24656,-5.334 l -0.01,-5.3341 -13.523501,-7.7723 c -7.43793,-4.2749 -13.83433,-8.2162 -14.21422,-8.7586 -1.61256,-2.3022 0.05371,-5.5165 2.85973,-5.5165 0.87847,0 5.41028,2.3367 12.87383,6.638 6.33497,3.6508 11.631941,6.6379 11.771061,6.6379 0.13913,0 0.25295,-5.6345 0.25295,-12.5211 l 0,-12.5211 -10.549571,-6.0762 c -5.80226,-3.3419 -11.02963,-6.5522 -11.61638,-7.1341 -0.61298,-0.6078 -1.06681,-1.637 -1.06681,-2.4192 0,-1.6892 1.85745,-3.5417 3.55117,-3.5417 0.70101,0 5.14814,2.2555 10.3374,5.2428 l 9.107121,5.2427 0.12797,-9.6287 c 0.12572,-9.458503 0.14837,-9.650803 1.28124,-10.873103 1.38192,-1.4912 3.3005,-1.6116 4.99165,-0.3134 1.18304,0.9081 1.18581,0.9293 1.42241,10.863303 l 0.23707,9.9534 8.95706,-5.1842 c 9.18749,-5.3176 10.8941,-5.9208 12.75637,-4.5084 0.46826,0.3551 0.97369,1.3995 1.1232,2.3208 0.2195,1.3525 0.0555,1.8874 -0.85136,2.7776 -0.61775,0.6064 -5.8705,3.8412 -11.67277,7.1884 l -10.54957,6.0858 0,12.5739 c 0,9.87 0.12746,12.5228 0.59268,12.336 0.32597,-0.1308 5.60668,-3.1402 11.73491,-6.6875 11.34683,-6.568 12.96233,-7.1997 14.81517,-5.793 1.21035,0.9188 1.57262,3.3672 0.69617,4.7048 -0.39937,0.6095 -6.81788,4.6094 -14.27444,8.8956 l -13.54877,7.7881 -0.008,5.3341 c -0.004,2.9337 0.15215,5.3304 0.34773,5.326 0.19558,-0.005 1.42241,-0.6409 2.72629,-1.4144 3.08985,-1.8328 4.55612,-1.8241 6.12157,0.0363 0.92249,1.0963 1.15392,1.7736 0.93156,2.7263 -0.41259,1.7678 -0.97233,2.2618 -5.7181,5.0466 l -4.17986,2.4528 -0.12924,8.619 c -0.0711,4.7405 0.0356,8.617104 0.23708,8.614804 0.20148,-0.002 3.56673,-1.8692 7.47837,-4.148704 l 7.11207,-4.1445 0.23707,-5.8517 c 0.22013,-5.4338 0.31702,-5.9164 1.3564,-6.7565 1.61565,-1.3059 3.58667,-1.1636 4.77298,0.3446 0.77741,0.9883 0.98269,1.9292 0.98269,4.5043 0,1.7902 0.16002,3.2447 0.3556,3.2321 0.19558,-0.0126 2.27586,-1.1444 4.62284,-2.5151 l 4.26725,-2.4922 0.23706,-16.0948 c 0.25182,-17.0964 0.35465,-17.8297 2.58426,-18.4286 1.93859,-0.5207 3.0557,-0.2497 4.01926,0.9753 0.9428,1.1986 0.98269,1.8069 0.98269,14.9861 0,12.559 0.0669,13.7111 0.78069,13.4372 0.42938,-0.1648 5.33021,-2.908 10.89074,-6.096 l 10.11006,-5.7964 0.0144,-12.4153 c 0.0144,-12.392 0.18822,-14.0054 1.66809,-15.4853 1.11728,-1.1172 3.69098,-1.0033 4.79226,0.2121 0.81789,0.9027 0.92563,2.0404 1.1403,12.0425 l 0.23707,11.0456 8.06034,-4.6842 c 8.91099,-5.1786 10.37014,-5.5966 12.05611,-3.4532 1.1594,1.474 1.25172,2.897 0.27811,4.287 -0.3875,0.5533 -3.96132,2.8797 -7.94181,5.1699 -3.98047,2.2902 -7.61799,4.4173 -8.08336,4.7268 -0.73448,0.4886 0.37694,1.2652 8.42352,5.8861 5.0983,2.9278 9.4796,5.7156 9.73621,6.1951 0.77433,1.4468 0.53671,3.5685 -0.50529,4.5115 -1.93047,1.747 -3.44039,1.1984 -14.87162,-5.4038 -6.27972,-3.6269 -11.16219,-6.1612 -11.56916,-6.005 -1.06574,0.4089 -21.46624,12.2177 -21.31666,12.339 0.0716,0.0581 5.25085,3.0363 11.50947,6.6182 6.25862,3.582 11.7527,6.941504 12.20905,7.465804 0.45636,0.5242 0.82975,1.6608 0.82975,2.5257 0,2.0463 -1.96996,3.7366 -3.90415,3.3497 -0.72125,-0.1442 -7.24999,-3.6814 -14.50832,-7.860304 -7.25833,-4.1789 -13.42317,-7.5981 -13.69965,-7.5981 -0.62204,0 -9.13807,4.8433 -9.1374,5.1967 2.6e-4,0.1408 1.06134,0.8517 2.35794,1.58 3.86994,2.173504 4.91057,4.821504 2.708,6.890704 -1.66602,1.5651 -3.35534,1.2674 -8.04934,-1.4188 -2.35443,-1.3474 -4.52924,-2.4497 -4.8329,-2.4497 -0.51557,0 -14.9428,8.1533 -14.9428,8.4447 0,0.0733 2.61368,1.6256 5.80819,3.4494 3.1945,1.8239 6.55495,3.7572 7.46767,4.2963 l 1.65948,0.9803 4.50431,-2.5761 c 2.74162,-1.5679 5.07235,-2.5774 5.95586,-2.5796 1.97764,-0.005 3.5269,1.5274 3.5269,3.4883 0,1.7562 -0.99869,2.8604 -4.14871,4.5869 -1.10829,0.6075 -2.01503,1.2252 -2.01496,1.3728 2.6e-4,0.5325 9.03536,5.3377 9.60743,5.1096 0.32254,-0.1286 6.55474,-3.6709 13.84936,-7.8716 7.83932,-4.5145 13.76763,-7.6378 14.4971,-7.6378 1.63094,0 3.29599,1.8269 3.29599,3.6164 0,2.0978 -1.40796,3.1626 -12.80173,9.6823 -5.60668,3.2082 -10.55709,6.0753 -11.00092,6.3713 -0.6815,0.4545 0.88912,1.5177 10.10436,6.8399 l 10.91131,6.3016 11.23782,-6.4489 c 6.1808,-3.5468 11.72489,-6.4488 12.32021,-6.4488 1.5232,0 3.40998,2.0377 3.40998,3.6828 0,1.9706 -1.50668,3.1485 -11.07312,8.6563 -7.17572,4.1314 -8.33143,4.9485 -7.58621,5.3633 7.73943,4.3084 14.85174,8.6609 15.69597,9.6053 1.40455,1.5713 1.34994,3.2712 -0.15337,4.7745 -1.79176,1.7918 -3.10984,1.3753 -12.05568,-3.8094 l -7.82328,-4.5341 -0.12713,10.8293 c -0.126,10.7342 -0.13725,10.8402 -1.28124,12.0746 -1.51591,1.6357 -3.50354,1.6446 -5.02838,0.0226 l -1.14946,-1.2228 -0.13925,-13.1199 -0.13928,-13.1199 -10.76589,-6.2223 -10.76592,-6.2222 -0.12551,13.8653 -0.12548,13.8652 -1.15574,1.2471 c -1.44415,1.5582 -3.11548,1.5938 -4.84916,0.1033 l -1.33032,-1.1438 -0.14709,-16.2808 -0.14713,-16.2808 -4.43161,-2.4892 c -2.43742,-1.3691 -4.55818,-2.4892 -4.71283,-2.4892 -0.15464,0 -0.28116,1.5032 -0.28116,3.3405 0,2.9145 -0.14841,3.4889 -1.1638,4.5043 -1.48324,1.4832 -3.30125,1.4832 -4.78448,0 -1.10378,-1.1038 -1.1639,-1.4522 -1.16594,-6.7565 l -0.002,-5.5927 -7.58407,-4.3639 -7.58407,-4.364 0,8.7221 0,8.7221 4.50307,2.6502 c 4.89424,2.8804 5.99499,4.0643 5.60635,6.0297 -0.62642,3.168 -3.7695,3.7521 -7.54266,1.4018 l -2.32969,-1.4511 -0.13485,5.2804 c -0.0979,3.835 0.0318,5.436 0.47413,5.8488 0.33495,0.3127 6.26309,3.8092 13.17365,7.7701 6.91056,3.9609 13.04472,7.7325 13.63147,8.3814 1.4647,1.6196 1.38888,3.6494 -0.18248,4.8854 -0.68709,0.5405 -1.77893,0.9827 -2.42626,0.9827 -0.65008,0 -6.32002,-2.9715 -12.66561,-6.6379 -6.31875,-3.6509 -11.62779,-6.6379 -11.79787,-6.6379 -0.17009,0 -0.30925,5.6234 -0.30925,12.4965 l 0,12.4966 10.92807,6.3029 c 6.01041,3.4666 11.23778,6.7452 11.61636,7.2857 1.62418,2.3188 -0.0633,5.5231 -2.89826,5.5034 -0.89496,-0.006 -4.60798,-1.8649 -10.40048,-5.2064 l -9.00862,-5.1967 -0.23958,9.5922 c -0.13179,5.2757 -0.41023,9.9366 -0.61877,10.3577 -0.42947,0.8671 -2.33991,1.8501 -3.54973,1.8264 -0.44408,-0.009 -1.34084,-0.4591 -1.99278,-1.0009 l 0,0 z"
       id="path4192"
       style="display:inline;opacity:1;fill:none;fill-opacity:1;fill-rule:nonzero;stroke:#ffffff;stroke-width:8;stroke-linecap:round;stroke-linejoin:miter;stroke-miterlimit:4;stroke-dasharray:none;stroke-dashoffset:0;stroke-opacity:1"
       inkscape:connector-curvature="0" />
  </g>
  <g
     inkscape:groupmode="layer"
     id="layer4"
     inkscape:label="crys 1"
     style="display:inline"
     transform="translate(-9.5072935,2.4995201)">
    <path
       inkscape:connector-curvature="0"
       style="display:inline;opacity:1;fill:#00233b;fill-opacity:1;fill-rule:nonzero;stroke:#00233b;stroke-width:3;stroke-linecap:round;stroke-linejoin:miter;stroke-miterlimit:4;stroke-dasharray:none;stroke-dashoffset:0;stroke-opacity:1"
       id="path4174"
       d="m 106.9288,216.18067 c -1.13761,-1.07474 -1.1865,-1.0333 -1.42241,-10.8927 l -0.23707,-9.9075 -9.008621,5.209 c -9.18928,5.3135 -10.89555,5.9249 -12.70481,4.5528 -1.28786,-0.9767 -1.60641,-3.8698 -0.55413,-5.0326 0.47063,-0.52 5.7267,-3.7467 11.68016,-7.1704 l 10.824471,-6.225 0,-12.5462 c 0,-10.84 -0.0947,-12.5099 -0.69654,-12.279 -0.38309,0.147 -5.703871,3.1569 -11.823941,6.6887 -7.5077,4.3325 -11.58851,6.4213 -12.54491,6.4213 -2.82469,0 -4.4617,-4.0827 -2.39446,-5.9717 0.54365,-0.4968 6.89116,-4.3213 14.1056,-8.4988 l 13.117181,-7.5955 0.13344,-5.5467 0.13347,-5.5467 -3.2191,1.7253 c -3.041581,1.6301 -3.297101,1.6878 -4.633451,1.0473 -0.7779,-0.3728 -1.69463,-1.2626 -2.03721,-1.9774 -1.04842,-2.1875 0.02112,-3.5499 5.238991,-6.6738 l 4.62093,-2.7665 0,-8.7582 0,-8.7583 -2.01509,1.2156 c -1.1083,0.6686 -4.522091,2.6411 -7.586201,4.3834 l -5.57113,3.1679 0,5.6219 c 0,5.3367 -0.05903,5.6809 -1.16379,6.7857 -1.48324,1.4832 -3.30125,1.4832 -4.78448,0 -1.01538,-1.0154 -1.16379,-1.5898 -1.16379,-4.5043 0,-1.8373 -0.13471,-3.3405 -0.29934,-3.3405 -0.53339,0 -8.93535,4.9011 -9.2947,5.4219 -0.19159,0.2776 -0.35161,7.6903 -0.3556,16.4725 l -0.0073,15.9678 -1.2493,0.9827 c -1.55724,1.2249 -3.05601,1.2505 -4.50636,0.0769 l -1.11934,-0.9057 -0.23707,-14.2167 -0.23707,-14.2168 -10.76609,6.2323 -10.7661,6.2323 -0.13907,13.1991 -0.13908,13.1991 -1.33032,1.1436 c -1.60293,1.3781 -3.15536,1.4574 -4.66241,0.2382 -1.1057,-0.8945 -1.12223,-1.0416 -1.35641,-12.0735 l -0.23707,-11.1679 -8.18721,4.7243 c -4.50297,2.5984 -8.72657,4.7243 -9.38578,4.7243 -1.64802,0 -3.52614,-1.9864 -3.52614,-3.7294 0,-1.8857 1.25536,-2.872 10.0463,-7.8928 3.99285,-2.2805 7.32429,-4.2012 7.4032,-4.2683 0.07891,-0.0671 -3.86829,-2.4166 -8.77155,-5.2212 -4.90326,-2.8045 -9.28841,-5.5195 -9.74476,-6.0333 -2.14077,-2.4101 0.05561,-6.4602 3.16603,-5.8381 1.06369,0.2127 16.11194,8.5544 22.13469,12.2699 0.59361,0.3662 3.02667,-0.8337 10.90517,-5.3784 5.57759,-3.2174 10.50408,-6.0901 10.94775,-6.3839 0.6792,-0.4496 -1.0042,-1.5761 -10.65409,-7.1294 -6.30341,-3.6275 -11.84044,-6.9752 -12.30451,-7.4392 -1.30771,-1.3078 -1.10132,-3.8913 0.40553,-5.0766 0.68711,-0.5405 1.70834,-0.9827 2.26941,-0.9827 0.56107,0 6.9852,3.4404 14.27585,7.6455 7.29065,4.205 13.52091,7.7472 13.84502,7.8716 0.58502,0.2245 9.61007,-4.5924 9.61031,-5.1293 6e-5,-0.1541 -1.0622,-0.8584 -2.36061,-1.5651 -3.79413,-2.065 -4.86872,-4.6552 -2.83631,-6.8368 1.56862,-1.6837 3.49226,-1.3311 8.50226,1.5582 l 4.49057,2.5897 1.55183,-0.9156 c 0.85352,-0.5036 4.2213,-2.4586 7.48395,-4.3446 3.26265,-1.8859 5.770941,-3.5746 5.573971,-3.7528 -0.19696,-0.1781 -3.576871,-2.1699 -7.510891,-4.4263 l -7.15277,-4.1024 -4.4636,2.6169 c -2.76128,1.6189 -5.01721,2.6189 -5.91516,2.6221 -3.36628,0.0119 -4.80317,-4.0588 -2.20089,-6.235104 0.72931,-0.6099 2.11617,-1.5308 3.0819,-2.0465 0.96573,-0.5157 1.75588,-1.0575 1.75588,-1.2042 0,-0.5894 -8.79195,-5.2506 -9.53652,-5.0559 -0.44013,0.1151 -6.75948,3.6485 -14.04299,7.8522 -7.43954,4.293604 -13.76115,7.642904 -14.4257,7.642904 -2.67092,0 -4.41562,-4.5252 -2.41505,-6.2638 0.45636,-0.3966 5.95043,-3.659004 12.20905,-7.249604 6.25862,-3.5907 11.4346,-6.5728 11.50219,-6.6269 0.14612,-0.1169 -20.27884,-11.9509 -21.30909,-12.3462 -0.41602,-0.1597 -5.33314,2.3916 -11.85308,6.1499 -6.12816,3.5325 -11.6124,6.4228 -12.18719,6.4228 -2.66037,0 -4.50706,-4.5516 -2.54291,-6.2676 0.45635,-0.3987 4.83356,-3.0244 9.72712,-5.8349 4.89356,-2.8104 8.84076,-5.1633 8.77155,-5.2284 -0.0692,-0.0652 -3.53962,-2.0744 -7.71204,-4.4649 -8.18643,-4.6902 -9.71982,-5.9629 -9.71982,-8.0669 0,-1.6414 1.91092,-3.3342 3.73851,-3.3118 0.68724,0.008 4.83277,2.1002 9.30028,4.6928 l 8.06034,4.6777 0.23707,-11.1365 c 0.23414,-10.9986 0.25092,-11.1476 1.35641,-12.0419 1.57214,-1.2719 3.46607,-1.1478 4.84327,0.3172 l 1.14946,1.2228 0.15012,13.1199 0.15011,13.1199 10.04386,5.7791 c 5.52411,3.1785 10.41722,5.9217 10.87358,6.096 0.7785,0.2973 0.82974,-0.5367 0.82974,-13.5054 l 0,-13.8223 1.1638,-1.1638 c 1.49335,-1.4933 3.55071,-1.5211 4.91735,-0.0664 1.01616,1.0816 1.03092,1.3251 1.03092,16.9955 0,14.5556 0.07006,15.9578 0.82974,16.6051 0.89846,0.7655 8.44299,5.1296 8.868,5.1296 0.14252,0 0.25916,-1.5847 0.25916,-3.5216 0,-3.2397 0.1,-3.6003 1.24928,-4.5043 1.74829,-1.3752 3.67128,-1.2702 4.8801,0.2666 0.86244,1.0964 0.98268,1.9047 0.98268,6.6056 0,5.3088 0.0116,5.3644 1.30388,6.2576 1.76814,1.2221 13.192241,7.697804 13.580031,7.697804 0.17046,0 0.25175,-3.879904 0.18067,-8.622104 l -0.12923,-8.6221 -4.40088,-2.5729 c -5.279871,-3.0867 -6.256601,-4.4291 -5.058951,-6.953 1.13881,-2.3999 2.84548,-2.6063 6.372531,-0.7706 1.54627,0.8047 2.92681,1.4631 3.06788,1.4631 0.14106,0 0.25202,-2.4003 0.24656,-5.334 l -0.01,-5.3341 -13.523501,-7.7723 c -7.43793,-4.2749 -13.83433,-8.2162 -14.21422,-8.7586 -1.61256,-2.3022 0.05371,-5.5165 2.85973,-5.5165 0.87847,0 5.41028,2.3367 12.87383,6.638 6.33497,3.6508 11.631941,6.6379 11.771061,6.6379 0.13913,0 0.25295,-5.6345 0.25295,-12.5211 l 0,-12.5211 -10.549571,-6.0762 c -5.80226,-3.3419 -11.02963,-6.5522 -11.61638,-7.1341 -0.61298,-0.6078 -1.06681,-1.637 -1.06681,-2.4192 0,-1.6892 1.85745,-3.5417 3.55117,-3.5417 0.70101,0 5.14814,2.2555 10.3374,5.2428 l 9.107121,5.2427 0.12797,-9.6287 c 0.12572,-9.458503 0.14837,-9.650803 1.28124,-10.873103 1.38192,-1.4912 3.3005,-1.6116 4.99165,-0.3134 1.18304,0.9081 1.18581,0.9293 1.42241,10.863303 l 0.23707,9.9534 8.95706,-5.1842 c 9.18749,-5.3176 10.8941,-5.9208 12.75637,-4.5084 0.46826,0.3551 0.97369,1.3995 1.1232,2.3208 0.2195,1.3525 0.0555,1.8874 -0.85136,2.7776 -0.61775,0.6064 -5.8705,3.8412 -11.67277,7.1884 l -10.54957,6.0858 0,12.5739 c 0,9.87 0.12746,12.5228 0.59268,12.336 0.32597,-0.1308 5.60668,-3.1402 11.73491,-6.6875 11.34683,-6.568 12.96233,-7.1997 14.81517,-5.793 1.21035,0.9188 1.57262,3.3672 0.69617,4.7048 -0.39937,0.6095 -6.81788,4.6094 -14.27444,8.8956 l -13.54877,7.7881 -0.008,5.3341 c -0.004,2.9337 0.15215,5.3304 0.34773,5.326 0.19558,-0.005 1.42241,-0.6409 2.72629,-1.4144 3.08985,-1.8328 4.55612,-1.8241 6.12157,0.0363 0.92249,1.0963 1.15392,1.7736 0.93156,2.7263 -0.41259,1.7678 -0.97233,2.2618 -5.7181,5.0466 l -4.17986,2.4528 -0.12924,8.619 c -0.0711,4.7405 0.0356,8.617104 0.23708,8.614804 0.20148,-0.002 3.56673,-1.8692 7.47837,-4.148704 l 7.11207,-4.1445 0.23707,-5.8517 c 0.22013,-5.4338 0.31702,-5.9164 1.3564,-6.7565 1.61565,-1.3059 3.58667,-1.1636 4.77298,0.3446 0.77741,0.9883 0.98269,1.9292 0.98269,4.5043 0,1.7902 0.16002,3.2447 0.3556,3.2321 0.19558,-0.0126 2.27586,-1.1444 4.62284,-2.5151 l 4.26725,-2.4922 0.23706,-16.0948 c 0.25182,-17.0964 0.35465,-17.8297 2.58426,-18.4286 1.93859,-0.5207 3.0557,-0.2497 4.01926,0.9753 0.9428,1.1986 0.98269,1.8069 0.98269,14.9861 0,12.559 0.0669,13.7111 0.78069,13.4372 0.42938,-0.1648 5.33021,-2.908 10.89074,-6.096 l 10.11006,-5.7964 0.0144,-12.4153 c 0.0144,-12.392 0.18822,-14.0054 1.66809,-15.4853 1.11728,-1.1172 3.69098,-1.0033 4.79226,0.2121 0.81789,0.9027 0.92563,2.0404 1.1403,12.0425 l 0.23707,11.0456 8.06034,-4.6842 c 8.91099,-5.1786 10.37014,-5.5966 12.05611,-3.4532 1.1594,1.474 1.25172,2.897 0.27811,4.287 -0.3875,0.5533 -3.96132,2.8797 -7.94181,5.1699 -3.98047,2.2902 -7.61799,4.4173 -8.08336,4.7268 -0.73448,0.4886 0.37694,1.2652 8.42352,5.8861 5.0983,2.9278 9.4796,5.7156 9.73621,6.1951 0.77433,1.4468 0.53671,3.5685 -0.50529,4.5115 -1.93047,1.747 -3.44039,1.1984 -14.87162,-5.4038 -6.27972,-3.6269 -11.16219,-6.1612 -11.56916,-6.005 -1.06574,0.4089 -21.46624,12.2177 -21.31666,12.339 0.0716,0.0581 5.25085,3.0363 11.50947,6.6182 6.25862,3.582 11.7527,6.941504 12.20905,7.465804 0.45636,0.5242 0.82975,1.6608 0.82975,2.5257 0,2.0463 -1.96996,3.7366 -3.90415,3.3497 -0.72125,-0.1442 -7.24999,-3.6814 -14.50832,-7.860304 -7.25833,-4.1789 -13.42317,-7.5981 -13.69965,-7.5981 -0.62204,0 -9.13807,4.8433 -9.1374,5.1967 2.6e-4,0.1408 1.06134,0.8517 2.35794,1.58 3.86994,2.173504 4.91057,4.821504 2.708,6.890704 -1.66602,1.5651 -3.35534,1.2674 -8.04934,-1.4188 -2.35443,-1.3474 -4.52924,-2.4497 -4.8329,-2.4497 -0.51557,0 -14.9428,8.1533 -14.9428,8.4447 0,0.0733 2.61368,1.6256 5.80819,3.4494 3.1945,1.8239 6.55495,3.7572 7.46767,4.2963 l 1.65948,0.9803 4.50431,-2.5761 c 2.74162,-1.5679 5.07235,-2.5774 5.95586,-2.5796 1.97764,-0.005 3.5269,1.5274 3.5269,3.4883 0,1.7562 -0.99869,2.8604 -4.14871,4.5869 -1.10829,0.6075 -2.01503,1.2252 -2.01496,1.3728 2.6e-4,0.5325 9.03536,5.3377 9.60743,5.1096 0.32254,-0.1286 6.55474,-3.6709 13.84936,-7.8716 7.83932,-4.5145 13.76763,-7.6378 14.4971,-7.6378 1.63094,0 3.29599,1.8269 3.29599,3.6164 0,2.0978 -1.40796,3.1626 -12.80173,9.6823 -5.60668,3.2082 -10.55709,6.0753 -11.00092,6.3713 -0.6815,0.4545 0.88912,1.5177 10.10436,6.8399 l 10.91131,6.3016 11.23782,-6.4489 c 6.1808,-3.5468 11.72489,-6.4488 12.32021,-6.4488 1.5232,0 3.40998,2.0377 3.40998,3.6828 0,1.9706 -1.50668,3.1485 -11.07312,8.6563 -7.17572,4.1314 -8.33143,4.9485 -7.58621,5.3633 7.73943,4.3084 14.85174,8.6609 15.69597,9.6053 1.40455,1.5713 1.34994,3.2712 -0.15337,4.7745 -1.79176,1.7918 -3.10984,1.3753 -12.05568,-3.8094 l -7.82328,-4.5341 -0.12713,10.8293 c -0.126,10.7342 -0.13725,10.8402 -1.28124,12.0746 -1.51591,1.6357 -3.50354,1.6446 -5.02838,0.0226 l -1.14946,-1.2228 -0.13925,-13.1199 -0.13928,-13.1199 -10.76589,-6.2223 -10.76592,-6.2222 -0.12551,13.8653 -0.12548,13.8652 -1.15574,1.2471 c -1.44415,1.5582 -3.11548,1.5938 -4.84916,0.1033 l -1.33032,-1.1438 -0.14709,-16.2808 -0.14713,-16.2808 -4.43161,-2.4892 c -2.43742,-1.3691 -4.55818,-2.4892 -4.71283,-2.4892 -0.15464,0 -0.28116,1.5032 -0.28116,3.3405 0,2.9145 -0.14841,3.4889 -1.1638,4.5043 -1.48324,1.4832 -3.30125,1.4832 -4.78448,0 -1.10378,-1.1038 -1.1639,-1.4522 -1.16594,-6.7565 l -0.002,-5.5927 -7.58407,-4.3639 -7.58407,-4.364 0,8.7221 0,8.7221 4.50307,2.6502 c 4.89424,2.8804 5.99499,4.0643 5.60635,6.0297 -0.62642,3.168 -3.7695,3.7521 -7.54266,1.4018 l -2.32969,-1.4511 -0.13485,5.2804 c -0.0979,3.835 0.0318,5.436 0.47413,5.8488 0.33495,0.3127 6.26309,3.8092 13.17365,7.7701 6.91056,3.9609 13.04472,7.7325 13.63147,8.3814 1.4647,1.6196 1.38888,3.6494 -0.18248,4.8854 -0.68709,0.5405 -1.77893,0.9827 -2.42626,0.9827 -0.65008,0 -6.32002,-2.9715 -12.66561,-6.6379 -6.31875,-3.6509 -11.62779,-6.6379 -11.79787,-6.6379 -0.17009,0 -0.30925,5.6234 -0.30925,12.4965 l 0,12.4966 10.92807,6.3029 c 6.01041,3.4666 11.23778,6.7452 11.61636,7.2857 1.62418,2.3188 -0.0633,5.5231 -2.89826,5.5034 -0.89496,-0.006 -4.60798,-1.8649 -10.40048,-5.2064 l -9.00862,-5.1967 -0.23958,9.5922 c -0.13179,5.2757 -0.41023,9.9366 -0.61877,10.3577 -0.42947,0.8671 -2.33991,1.8501 -3.54973,1.8264 -0.71885,-0.0749 -1.47301,-0.4694 -1.99262,-1.0009 z"
       sodipodi:nodetypes="cscsscscscsscscccccssccccscsccsscscscccccccccsscssssscccsscscsssccccscsccccsccssccsscccsssccsscscscccccscscccscssscssssccscsccccsssscscssscsccscsccsscscscssccccssccscscsscssscscsscscsccscsscscsccsccccscssccscsscccccsccccssssscsssscccscsscccccccccccccsssccccccccssccscsccsssscsscscsccc" />
  </g>
  <g
     inkscape:groupmode="layer"
     id="layer3"
     inkscape:label="F"
     style="display:inline"
     transform="translate(-9.5072935,2.4995201)"
     sodipodi:insensitive="true">
    <path
       inkscape:connector-curvature="0"
       d="m 105.31028,102.40482 c 0.17046,0 0.25175,-3.879894 0.18067,-8.622094 l -0.12923,-8.6221 -0.0194,-8.8334 c 0.14106,0 0.25202,-2.4003 0.24656,-5.334 l -0.01,-5.3341 0.12418,-3.412253 8.07455,-5.495747 c 0.32597,-0.1308 5.60668,-3.1402 11.73491,-6.6875 11.34684,-6.568 12.96234,-7.1997 14.81518,-5.793 1.21035,0.9188 1.57262,3.3672 0.69617,4.7048 -0.39937,0.6095 -6.81788,4.6094 -14.27445,8.8956 l -13.54877,7.7881 -0.008,5.3341 c -0.004,2.9337 0.15215,5.3304 0.34773,5.326 0.19558,-0.005 1.42241,-0.6409 2.72629,-1.4144 3.08985,-1.8328 4.55612,-1.8241 6.12157,0.0363 0.92249,1.0963 1.15392,1.7736 0.93156,2.7263 -0.41259,1.7678 -0.97233,2.2618 -5.7181,5.0466 l -4.17986,2.4528 -0.12924,8.619 c -0.0711,4.7405 0.0356,8.617094 0.23708,8.614794 -0.63532,2.66515 -6.11771,3.98624 -8.21948,0.004 z"
       id="path3749-2"
       style="display:inline;opacity:1;fill:#ffffff;fill-opacity:1;fill-rule:nonzero;stroke:#00233b;stroke-width:3;stroke-linecap:round;stroke-linejoin:miter;stroke-miterlimit:4;stroke-dasharray:none;stroke-dashoffset:0;stroke-opacity:1"
       inkscape:transform-center-x="7.3381784"
       inkscape:transform-center-y="-27.790277"
       sodipodi:nodetypes="csccscccscssccccssccscc" />
  </g>
</svg>
